<svg id="Layer_1" data-name="Layer 1" xmlns="http://www.w3.org/2000/svg" xmlns:xlink="http://www.w3.org/1999/xlink" viewBox="0 0 349.77 391.7"><defs><style>.cls-1{fill:none;}.cls-2{fill:#f6f6f6;}.cls-3{fill:#db9849;}.cls-4{clip-path:url(#clip-path);}.cls-5{fill:#acdbd1;}.cls-6{fill:#f7a18a;}.cls-7{fill:#99d3e7;}.cls-8{opacity:0.63;}.cls-9{fill:#fff;}.cls-10{opacity:0.04;}.cls-11{opacity:0.57;}</style><clipPath id="clip-path" transform="translate(36.18 7.07)"><path class="cls-1" d="M253.77,28.55c-.09.12-.21.23-.31.35A13,13,0,0,1,252,30.31l-.28.25c-.33.26-.68.53-1,.79l-.3.21c-.4.27-.82.55-1.27.82h0c-16.63,10.13-64.63,17.45-121.3,17.45S23.14,42.51,6.51,32.38h0c-.45-.27-.86-.55-1.26-.82l-.31-.21c-.36-.27-.72-.53-1-.79l-.29-.25A15,15,0,0,1,2.16,28.9c-.1-.12-.22-.23-.31-.35l-.25-.33L13.44,319.37A28.73,28.73,0,0,0,42,347.07H215.77a28.74,28.74,0,0,0,28.6-27.92l9.68-291C254,28.3,253.87,28.43,253.77,28.55Z"/></clipPath></defs><path class="cls-2" d="M127.81.25c70.45,0,127.56,11.32,127.56,25.28a3.19,3.19,0,0,1,0,.54,3,3,0,0,1-.06.43.11.11,0,0,1,0,.06,2.19,2.19,0,0,1-.12.49,6.23,6.23,0,0,1-.68,1.5,5.81,5.81,0,0,1-.32.49,16.7,16.7,0,0,1-5,4.3c-16.63-10.12-64.64-17.45-121.31-17.45S23.14,23.22,6.51,33.34a16.63,16.63,0,0,1-5-4.3l-.28-.4a6.82,6.82,0,0,1-.63-1.31,3.38,3.38,0,0,1-.13-.42,2,2,0,0,1-.09-.41,3,3,0,0,1-.07-.43,4.75,4.75,0,0,1,0-.54C.26,11.57,57.36.25,127.81.25Z" transform="translate(36.18 7.07)"/><path class="cls-3" d="M6.51,33.34c16.63-10.12,64.63-17.45,121.3-17.45s104.68,7.33,121.31,17.45a16.7,16.7,0,0,0,5-4.3c-8.62,12.28-61.89,21.75-126.32,21.75S10.12,41.32,1.49,29A16.63,16.63,0,0,0,6.51,33.34Z" transform="translate(36.18 7.07)"/><path class="cls-2" d="M253.77,28.55c-.09.12-.21.23-.31.35A13,13,0,0,1,252,30.31l-.28.25c-.33.26-.68.53-1,.79l-.3.21c-.4.27-.82.55-1.27.82h0c-16.63,10.13-64.63,17.45-121.3,17.45S23.14,42.51,6.51,32.38h0c-.45-.27-.86-.55-1.26-.82l-.31-.21c-.36-.27-.72-.53-1-.79l-.29-.25A15,15,0,0,1,2.16,28.9c-.1-.12-.22-.23-.31-.35l-.25-.33L13.44,319.37A28.73,28.73,0,0,0,42,347.07H215.77a28.74,28.74,0,0,0,28.6-27.92l9.68-291C254,28.3,253.87,28.43,253.77,28.55Z" transform="translate(36.18 7.07)"/><g class="cls-4"><path class="cls-5" d="M-36.18,201.2c12.1-10.74,27.78-22.25,43-16.63,7.63,2.83,13.16,9.56,17.18,16.64,11.37,20,14.4,45.6,32,60.48C71.59,275,95.27,276.22,109.7,290.81c11,11.13,14.22,27.59,16.92,43,2.28,13.05,3.69,28.73-6.39,37.34-5.42,4.63-12.88,5.87-20,6.87q-20.19,2.9-40.47,5.25c-12.06,1.4-24.59,2.62-36.07-1.33-21.12-7.28-32.76-29.65-40-50.78A315.69,315.69,0,0,1-33.33,230.49" transform="translate(36.18 7.07)"/><path class="cls-6" d="M278,93.45c-28.92,22.45-74.57,7.48-104.48,28.6-3.3,2.33-6.44,5.22-7.82,9-1.47,4-.78,8.55.82,12.53,3.17,7.91,9.87,15,9.32,23.46-.35,5.6-3.85,10.44-7.28,14.87-7.9,10.2-16.64,21.31-16.24,34.2.46,14.63,13.11,26.47,26.92,31.3s28.83,4.33,43.45,4.93a265,265,0,0,1,54.47,7.86c3.42.87,7,1.82,10.43,1a15.09,15.09,0,0,0,6.55-3.93c8.92-8.45,11.23-21.57,13.05-33.73l6.42-42.72" transform="translate(36.18 7.07)"/><path class="cls-7" d="M23.93-5.77C34.62,5,46,17.17,47,32.31c.48,6.9-1.26,13.87-.25,20.71,2.12,14.21,15.63,25.12,16.3,39.47.5,10.79-7,21-16.84,25.44s-21.4,3.92-31.61.43-19.29-9.68-27.83-16.28c-7.69-5.93-15.31-12.56-19.22-21.45-3.66-8.33-3.65-17.86-2.11-26.82A84.43,84.43,0,0,1,0-.47C5.49-4.3,11.89-7.57,18.57-7" transform="translate(36.18 7.07)"/></g><path class="cls-1" d="M253.77,28.55c-.09.12-.21.23-.31.35A13,13,0,0,1,252,30.31l-.28.25c-.33.26-.68.53-1,.79l-.3.21c-.4.27-.82.55-1.27.82h0c-16.63,10.13-64.63,17.45-121.3,17.45S23.14,42.51,6.51,32.38h0c-.45-.27-.86-.55-1.26-.82l-.31-.21c-.36-.27-.72-.53-1-.79l-.29-.25A15,15,0,0,1,2.16,28.9c-.1-.12-.22-.23-.31-.35l-.25-.33L13.44,319.37A28.73,28.73,0,0,0,42,347.07H215.77a28.74,28.74,0,0,0,28.6-27.92l9.68-291C254,28.3,253.87,28.43,253.77,28.55Z" transform="translate(36.18 7.07)"/><g class="cls-8"><path class="cls-9" d="M59,31.05c7.11.48,14.05,1.21,21,1.79S93.79,34,100.7,34.34s13.83.66,20.79.86,13.94.28,21.06.64a105.72,105.72,0,0,1-20.89,4.07,136.46,136.46,0,0,1-21.3.42,136.29,136.29,0,0,1-21.11-2.85A104.28,104.28,0,0,1,59,31.05Z" transform="translate(36.18 7.07)"/></g><g class="cls-10"><path d="M253.77,28.55c-.09.12-.21.23-.31.35A13,13,0,0,1,252,30.31l-.28.25c-.33.26-.68.53-1,.79l-.3.21c-.4.27-.82.55-1.27.82h0A62.13,62.13,0,0,1,235.88,38L226.5,319.75a28.81,28.81,0,0,1-22.81,27.32h12.08a28.74,28.74,0,0,0,28.6-27.92l9.68-291C254,28.3,253.87,28.43,253.77,28.55Z" transform="translate(36.18 7.07)"/></g><g class="cls-11"><path class="cls-1" d="M26.15,63.31" transform="translate(36.18 7.07)"/><path class="cls-1" d="M25.86,63.1" transform="translate(36.18 7.07)"/><path class="cls-9" d="M33.5,320.94C31,299.35,29.37,277.74,28,256.12s-2.51-43.26-3.31-64.91-1.37-43.3-1.55-65-.15-43.34.7-65C26.29,82.77,28,104.39,29.36,126s2.49,43.26,3.3,64.91,1.31,43.3,1.53,65S34.35,299.23,33.5,320.94Z" transform="translate(36.18 7.07)"/></g></svg>